<?xml version="1.0" encoding="UTF-8"?>
<svg version="1.1" xmlns="http://www.w3.org/2000/svg" width="32" height="24">
<path d="M0 0 C6.75 0 6.75 0 10.875 3.5 C11.65617188 4.1496875 12.43734375 4.799375 13.2421875 5.46875 C13.82226562 5.9740625 14.40234375 6.479375 15 7 C17.75837169 5.70833361 20.05147482 4.25957416 22.4375 2.375 C24.85038109 0.61074286 25.83323678 0.02175172 28.875 -0.375 C31 -0 31 -0 32 1 C32.08713831 2.70772358 32.10700007 4.41898649 32.09765625 6.12890625 C32.09443359 7.16337891 32.09121094 8.19785156 32.08789062 9.26367188 C32.07532227 10.8965918 32.07532227 10.8965918 32.0625 12.5625 C32.05798828 13.65498047 32.05347656 14.74746094 32.04882812 15.87304688 C32.03699826 18.58208495 32.02051543 21.29101599 32 24 C29.36 24 26.72 24 24 24 C23.505 19.05 23.505 19.05 23 14 C21.02 15.65 19.04 17.3 17 19 C13.93224489 17.57568513 11.78959901 16.09219926 9 14 C8.67 17.3 8.34 20.6 8 24 C5.36 24 2.72 24 0 24 C0 16.08 0 8.16 0 0 Z " fill="#E94334" transform="translate(0,0)"/>
<path d="M0 0 C5.99111111 2.99555556 5.99111111 2.99555556 8 5 C8.390625 7.91796875 8.390625 7.91796875 8.25 11.1875 C8.21390625 12.27417969 8.1778125 13.36085938 8.140625 14.48046875 C8.07101562 15.72763672 8.07101562 15.72763672 8 17 C5.36 17 2.72 17 0 17 C0 11.39 0 5.78 0 0 Z " fill="#4384F2" transform="translate(0,7)"/>
<path d="M0 0 C0 5.61 0 11.22 0 17 C-2.64 17 -5.28 17 -8 17 C-8.91460833 6.38038109 -8.91460833 6.38038109 -6.734375 3.08984375 C-4.58761846 1.30261683 -2.86018641 0 0 0 Z " fill="#36A852" transform="translate(32,7)"/>
<path d="M0 0 C1.99954746 -0.04254356 4.00041636 -0.04080783 6 0 C7 1 7 1 7.09765625 3.28515625 C7.08605469 4.20167969 7.07445312 5.11820312 7.0625 6.0625 C7.05347656 6.98160156 7.04445313 7.90070312 7.03515625 8.84765625 C7.02355469 9.55792969 7.01195312 10.26820312 7 11 C3.535 9.02 3.535 9.02 0 7 C0 4.69 0 2.38 0 0 Z " fill="#C42220" transform="translate(0,0)"/>
<path d="M0 0 C2.5 0.125 2.5 0.125 3.5 1.125 C3.54080783 3.12458364 3.54254356 5.12545254 3.5 7.125 C1.19 8.445 -1.12 9.765 -3.5 11.125 C-3.52688151 9.47925434 -3.54634123 7.83338587 -3.5625 6.1875 C-3.57410156 5.27097656 -3.58570312 4.35445313 -3.59765625 3.41015625 C-3.4600356 0.18983308 -3.22968262 0.16148413 0 0 Z " fill="#F9BB04" transform="translate(28.5,-0.125)"/>
</svg>
